<?xml version="1.0"?>
<svg xmlns="http://www.w3.org/2000/svg" xmlns:xlink="http://www.w3.org/1999/xlink" xmlns:svgjs="http://svgjs.com/svgjs" version="1.1" width="512" height="512" x="0" y="0" viewBox="0 0 64 64" style="enable-background:new 0 0 512 512" xml:space="preserve" class=""><g><g xmlns="http://www.w3.org/2000/svg" id="Web_server" data-name="Web server"><rect fill="#f1f1f1" height="54" rx="6" width="64" y="2" data-original="#e6ecff" class=""/><rect fill="#1e3b70" height="7" rx="1" width="32" x="17" y="29" data-original="#376cfb" class=""/><rect fill="#1e3b70" height="7" rx="1" width="32" x="17" y="42" data-original="#376cfb" class=""/><path d="m48 55h-9a1 1 0 0 0 -.857 1.515l3 5a1 1 0 0 0 .857.485h6a1 1 0 0 0 1-1v-5a1 1 0 0 0 -1-1z" fill="#1e3b70" data-original="#376cfb" class=""/><path d="m27 55h-9a1 1 0 0 0 -1 1v5a1 1 0 0 0 1 1h6a1 1 0 0 0 .857-.485l3-5a1 1 0 0 0 -.857-1.515z" fill="#1e3b70" data-original="#376cfb" class=""/><rect fill="#29539b" height="10" rx="2" width="38" x="14" y="21" data-original="#4294ff" class=""/><rect fill="#29539b" height="10" rx="2" width="38" x="14" y="34" data-original="#4294ff" class=""/><rect fill="#29539b" height="10" rx="2" width="38" x="14" y="47" data-original="#4294ff" class=""/><path d="m64 8a6.006 6.006 0 0 0 -6-6h-52a6.006 6.006 0 0 0 -6 6v10h21a7.011 7.011 0 0 0 6.929-6h36.071z" fill="#29539b" data-original="#4294ff" class=""/><g fill="#376cfb"><circle cx="22" cy="26" r="1" fill="#1e3b70" data-original="#376cfb" class=""/><circle cx="19" cy="26" r="1" fill="#1e3b70" data-original="#376cfb" class=""/><circle cx="25" cy="26" r="1" fill="#1e3b70" data-original="#376cfb" class=""/><path d="m47 27h-16a1 1 0 0 1 0-2h16a1 1 0 0 1 0 2z" fill="#1e3b70" data-original="#376cfb" class=""/><circle cx="22" cy="39" r="1" fill="#1e3b70" data-original="#376cfb" class=""/><circle cx="19" cy="39" r="1" fill="#1e3b70" data-original="#376cfb" class=""/><circle cx="25" cy="39" r="1" fill="#1e3b70" data-original="#376cfb" class=""/><path d="m47 40h-16a1 1 0 0 1 0-2h16a1 1 0 0 1 0 2z" fill="#1e3b70" data-original="#376cfb" class=""/><circle cx="22" cy="52" r="1" fill="#1e3b70" data-original="#376cfb" class=""/><circle cx="19" cy="52" r="1" fill="#1e3b70" data-original="#376cfb" class=""/><circle cx="25" cy="52" r="1" fill="#1e3b70" data-original="#376cfb" class=""/><path d="m47 53h-16a1 1 0 0 1 0-2h16a1 1 0 0 1 0 2z" fill="#1e3b70" data-original="#376cfb" class=""/><circle cx="7" cy="11" r="3" fill="#1e3b70" data-original="#376cfb" class=""/><circle cx="14" cy="11" r="3" fill="#1e3b70" data-original="#376cfb" class=""/><circle cx="21" cy="11" r="3" fill="#1e3b70" data-original="#376cfb" class=""/><path d="m58 8h-20a1 1 0 0 1 0-2h20a1 1 0 0 1 0 2z" fill="#1e3b70" data-original="#376cfb" class=""/></g></g></g></svg>
