<?xml version="1.0"?>
<svg xmlns="http://www.w3.org/2000/svg" xmlns:xlink="http://www.w3.org/1999/xlink" xmlns:svgjs="http://svgjs.com/svgjs" version="1.1" width="512" height="512" x="0" y="0" viewBox="0 0 480 480.001" style="enable-background:new 0 0 512 512" xml:space="preserve" class=""><g><path xmlns="http://www.w3.org/2000/svg" d="m413.441406 85.359375-24.457031 24.457031c17.382813 12.558594 32.640625 27.816406 45.199219 45.199219l24.457031-24.457031zm0 0" fill="#29539b" data-original="#9bc9ff" class=""/><path xmlns="http://www.w3.org/2000/svg" d="m272 440c92.785156 0 168-75.214844 168-168s-75.214844-168-168-168-168 75.214844-168 168 75.214844 168 168 168zm-16-120 111.199219-111.199219-111.199219 111.199219-53.253906-53.257812zm0 0" fill="#29539b" data-original="#9bc9ff" class=""/><g xmlns="http://www.w3.org/2000/svg" fill="#1e81ce"><path d="m272 448c97.203125 0 176-78.796875 176-176s-78.796875-176-176-176-176 78.796875-176 176c.109375 97.15625 78.84375 175.890625 176 176zm-8-335.59375v23.59375c0 4.417969 3.582031 8 8 8s8-3.582031 8-8v-23.59375c81.933594 4.171875 147.421875 69.660156 151.59375 151.59375h-31.59375c-4.417969 0-8 3.582031-8 8s3.582031 8 8 8h31.59375c-4.171875 81.933594-69.660156 147.421875-151.59375 151.59375v-23.59375c0-4.417969-3.582031-8-8-8s-8 3.582031-8 8v23.59375c-81.933594-4.171875-147.421875-69.660156-151.589844-151.59375h23.589844c4.417969 0 8-3.582031 8-8s-3.582031-8-8-8h-23.589844c4.167969-81.933594 69.65625-147.421875 151.589844-151.59375zm0 0" fill="#1e3b70" data-original="#1e81ce" class=""/><path d="m444.542969 156 19.753906-19.753906c3.121094-3.121094 3.121094-8.1875 0-11.308594l-45.199219-45.203125c-3.125-3.121094-8.1875-3.121094-11.3125 0l-19.785156 19.722656c-32-21.605469-69.414062-33.820312-108-35.257812v-48.199219h56c4.417969 0 8-3.582031 8-8s-3.582031-8-8-8h-128c-4.417969 0-8 3.582031-8 8s3.582031 8 8 8h56v48.273438c-71.347656 2.722656-136.300781 41.890624-172 103.726562h-44c-4.417969 0-8 3.582031-8 8s3.582031 8 8 8h48c.207031 0 .382812-.105469.59375-.121094 2.882812.039063 5.554688-1.492187 6.984375-4 42.105469-76.953125 131.011719-115.585937 215.996094-93.855468 84.984375 21.730468 144.4375 98.296874 144.4375 186.015624 0 87.722657-59.453125 164.285157-144.4375 186.015626-84.984375 21.730468-173.890625-16.902344-215.996094-93.855469-1.414063-2.515625-4.085937-4.0625-6.96875-4.039063-.207031 0-.394531-.121094-.609375-.121094h-48c-4.417969 0-8 3.582032-8 8 0 4.417969 3.582031 8 8 8h44c37.992188 65.808594 108.859375 105.648438 184.824219 103.90625 75.96875-1.738281 144.933593-44.785156 179.871093-112.265624 34.933594-67.476563 30.277344-148.640626-12.152343-211.679688zm-43.488281-46.910156 12.386718-12.386719 33.886719 33.890625-12.382813 12.382812c-9.964843-12.5625-21.335937-23.945312-33.890624-33.921874zm0 0" fill="#1e3b70" data-original="#1e81ce" class=""/><path d="m80 272c0-4.417969-3.582031-8-8-8h-64c-4.417969 0-8 3.582031-8 8s3.582031 8 8 8h64c4.417969 0 8-3.582031 8-8zm0 0" fill="#1e3b70" data-original="#1e81ce" class=""/><path d="m24 232h56c4.417969 0 8-3.582031 8-8s-3.582031-8-8-8h-56c-4.417969 0-8 3.582031-8 8s3.582031 8 8 8zm0 0" fill="#1e3b70" data-original="#1e81ce" class=""/><path d="m88 320c0-4.417969-3.582031-8-8-8h-56c-4.417969 0-8 3.582031-8 8s3.582031 8 8 8h56c4.417969 0 8-3.582031 8-8zm0 0" fill="#1e3b70" data-original="#1e81ce" class=""/><path d="m250.34375 325.65625c3.125 3.121094 8.1875 3.121094 11.3125 0l111.199219-111.199219c3.03125-3.140625 2.988281-8.128906-.097657-11.214843-3.085937-3.085938-8.074218-3.128907-11.214843-.097657l-105.542969 105.542969-47.597656-47.597656c-3.140625-3.035156-8.128906-2.992188-11.214844.09375-3.085938 3.085937-3.128906 8.078125-.097656 11.214844zm0 0" fill="#1e3b70" data-original="#1e81ce" class=""/></g></g></svg>
