<?xml version="1.0" encoding="UTF-8"?>
<svg xmlns="http://www.w3.org/2000/svg" xmlns:xlink="http://www.w3.org/1999/xlink" xmlns:svgjs="http://svgjs.com/svgjs" version="1.1" width="512" height="512" x="0" y="0" viewBox="0 0 480 480" style="enable-background:new 0 0 512 512" xml:space="preserve" class="">
  <g>
    <path xmlns="http://www.w3.org/2000/svg" d="m8 424h464v-416h-464zm72-344h320v208h-64v32h-48v32h-96v-32h-48v-32h-64zm0 0" fill="#29539b" data-original="#9bc9ff" class=""/>
    <g xmlns="http://www.w3.org/2000/svg" fill="#1e81ce">
      <path d="m472 432h-464c-4.417969 0-8-3.582031-8-8v-416c0-4.417969 3.582031-8 8-8h464c4.417969 0 8 3.582031 8 8v416c0 4.417969-3.582031 8-8 8zm-456-16h448v-400h-448zm0 0" fill="#1e3b70" data-original="#1e81ce" class=""/>
      <path d="m72 72v224h64v32h48v32h112v-32h48v-32h64v-224zm320 208h-64v32h-48v32h-80v-32h-48v-32h-64v-192h16v72h16v-72h16v72h16v-72h16v72h16v-72h16v72h16v-72h16v72h16v-72h16v72h16v-72h16v72h16v-72h16v72h16v-72h16v72h16v-72h16zm0 0" fill="#1e3b70" data-original="#1e81ce" class=""/>
    </g>
  </g>
</svg>
