<?xml version="1.0"?>
<svg xmlns="http://www.w3.org/2000/svg" xmlns:xlink="http://www.w3.org/1999/xlink" xmlns:svgjs="http://svgjs.com/svgjs" version="1.1" width="512" height="512" x="0" y="0" viewBox="0 0 64 64" style="enable-background:new 0 0 512 512" xml:space="preserve" class=""><g><g xmlns="http://www.w3.org/2000/svg" id="home_server" data-name="home server"><path d="m59.74 17.979-27.192-17.816a1 1 0 0 0 -1.1 0l-27.188 17.816a4.986 4.986 0 0 0 -2.26 4.182v35.839a1 1 0 0 0 1 1h58a1 1 0 0 0 1-1v-35.839a4.986 4.986 0 0 0 -2.26-4.182z" fill="#ffffff" data-original="#e6ecff" class=""/><path d="m58 59v-36.839a1 1 0 0 0 -.452-.837l-25-16.379a1.008 1.008 0 0 0 -1.1 0l-25 16.379a1 1 0 0 0 -.448.837v36.839z" fill="#f1f1f1" data-original="#d0dbf7" class=""/><path d="m63 59h-62a1 1 0 0 1 0-2h62a1 1 0 0 1 0 2z" fill="#f1f1f1" data-original="#d0dbf7" class=""/><rect fill="#1e3b70" height="7" rx="1" width="32" x="16" y="32" data-original="#376cfb" class=""/><rect fill="#1e3b70" height="7" rx="1" width="32" x="16" y="45" data-original="#376cfb" class=""/><path d="m47 58h-8a1 1 0 0 0 -.9 1.447l2 4a1 1 0 0 0 .9.553h6a1 1 0 0 0 1-1v-4a1 1 0 0 0 -1-1z" fill="#1e3b70" data-original="#376cfb" class=""/><path d="m25 58h-8a1 1 0 0 0 -1 1v4a1 1 0 0 0 1 1h6a1 1 0 0 0 .895-.553l2-4a1 1 0 0 0 -.895-1.447z" fill="#1e3b70" data-original="#376cfb" class=""/><rect fill="#29539b" height="10" rx="2" width="38" x="13" y="24" data-original="#4294ff" class=""/><rect fill="#29539b" height="10" rx="2" width="38" x="13" y="37" data-original="#4294ff" class=""/><rect fill="#29539b" height="10" rx="2" width="38" x="13" y="50" data-original="#4294ff" class=""/><g fill="#376cfb"><circle cx="21" cy="29" r="1" fill="#1e3b70" data-original="#376cfb" class=""/><circle cx="18" cy="29" r="1" fill="#1e3b70" data-original="#376cfb" class=""/><circle cx="24" cy="29" r="1" fill="#1e3b70" data-original="#376cfb" class=""/><path d="m46 30h-16a1 1 0 0 1 0-2h16a1 1 0 0 1 0 2z" fill="#1e3b70" data-original="#376cfb" class=""/><circle cx="21" cy="42" r="1" fill="#1e3b70" data-original="#376cfb" class=""/><circle cx="18" cy="42" r="1" fill="#1e3b70" data-original="#376cfb" class=""/><circle cx="24" cy="42" r="1" fill="#1e3b70" data-original="#376cfb" class=""/><path d="m46 43h-16a1 1 0 0 1 0-2h16a1 1 0 0 1 0 2z" fill="#1e3b70" data-original="#376cfb" class=""/><circle cx="21" cy="55" r="1" fill="#1e3b70" data-original="#376cfb" class=""/><circle cx="18" cy="55" r="1" fill="#1e3b70" data-original="#376cfb" class=""/><circle cx="24" cy="55" r="1" fill="#1e3b70" data-original="#376cfb" class=""/><path d="m46 56h-16a1 1 0 0 1 0-2h16a1 1 0 0 1 0 2z" fill="#1e3b70" data-original="#376cfb" class=""/></g></g></g></svg>
