<?xml version="1.0"?>
<svg xmlns="http://www.w3.org/2000/svg" xmlns:xlink="http://www.w3.org/1999/xlink" xmlns:svgjs="http://svgjs.com/svgjs" version="1.1" width="512" height="512" x="0" y="0" viewBox="0 0 64 64" style="enable-background:new 0 0 512 512" xml:space="preserve" class=""><g><g xmlns="http://www.w3.org/2000/svg" id="Server_cloud" data-name="Server cloud"><rect fill="#1e3b70" height="7" rx="1" width="37" x="4" y="36" data-original="#d0dbf7" class=""/><rect fill="#1e3b70" height="7" rx="1" width="37" x="4" y="21" data-original="#d0dbf7" class=""/><rect fill="#29539b" height="12" rx="3" width="45" y="41" data-original="#e6ecff" class=""/><rect fill="#29539b" height="12" rx="3" width="45" y="26" data-original="#e6ecff" class=""/><rect fill="#29539b" height="12" rx="3" width="45" y="11" data-original="#e6ecff" class=""/><g fill="#d0dbf7"><circle cx="8" cy="47" r="1" fill="#1e3b70" data-original="#d0dbf7" class=""/><circle cx="5" cy="47" r="1" fill="#1e3b70" data-original="#d0dbf7" class=""/><circle cx="11" cy="47" r="1" fill="#1e3b70" data-original="#d0dbf7" class=""/><path d="m40 48h-19a1 1 0 0 1 0-2h19a1 1 0 0 1 0 2z" fill="#1e3b70" data-original="#d0dbf7" class=""/><circle cx="8" cy="32" r="1" fill="#1e3b70" data-original="#d0dbf7" class=""/><circle cx="5" cy="32" r="1" fill="#1e3b70" data-original="#d0dbf7" class=""/><circle cx="11" cy="32" r="1" fill="#1e3b70" data-original="#d0dbf7" class=""/><path d="m40 33h-19a1 1 0 0 1 0-2h19a1 1 0 0 1 0 2z" fill="#1e3b70" data-original="#d0dbf7" class=""/><circle cx="8" cy="17" r="1" fill="#1e3b70" data-original="#d0dbf7" class=""/><circle cx="5" cy="17" r="1" fill="#1e3b70" data-original="#d0dbf7" class=""/><circle cx="11" cy="17" r="1" fill="#1e3b70" data-original="#d0dbf7" class=""/><path d="m40 18h-19a1 1 0 0 1 0-2h19a1 1 0 0 1 0 2z" fill="#1e3b70" data-original="#d0dbf7" class=""/></g><path d="m57.909 37.064a8.755 8.755 0 0 0 .091-1.254 9.059 9.059 0 0 0 -9-9.1 8.95 8.95 0 0 0 -8.206 5.35 5.7 5.7 0 0 0 -1.794-.287 6.033 6.033 0 0 0 -5.986 5.648 8.094 8.094 0 0 0 2.986 15.579h20a8.094 8.094 0 0 0 1.909-15.936z" fill="#f1f1f1" data-original="#4294ff" class=""/></g></g></svg>
