<?xml version="1.0"?>
<svg xmlns="http://www.w3.org/2000/svg" viewBox="0 0 64 64" width="512" height="512"><g id="phone_&#xB7;_telephone_&#xB7;_communication_&#xB7;_mobile_&#xB7;_online" data-name="phone &#xB7; telephone &#xB7; communication &#xB7; mobile &#xB7; online"><path d="M51.74,50.33l-9.62-9.62a3,3,0,0,0-4.24,0l-5.26,5.25a6.938,6.938,0,0,1-7.81,1.45,17.1,17.1,0,0,1-8.22-8.22,6.938,6.938,0,0,1,1.45-7.81l5.25-5.26a3,3,0,0,0,0-4.24l-9.62-9.62a3.052,3.052,0,0,0-2.24-.88,2.989,2.989,0,0,0-2.16,1.03,31.464,31.464,0,0,0-2.22,2.91A30.017,30.017,0,0,0,48.68,56.95a31.464,31.464,0,0,0,2.91-2.22,2.989,2.989,0,0,0,1.03-2.16A3.029,3.029,0,0,0,51.74,50.33ZM10.79,13.72a.976.976,0,0,1,.71-.35h.04a1.04,1.04,0,0,1,.72.3l9.62,9.62a1.008,1.008,0,0,1,0,1.42L20,26.59,9.19,15.77C9.69,15.07,10.22,14.37,10.79,13.72ZM32,60a27.713,27.713,0,0,1-10.51-2.05A28.042,28.042,0,0,1,6.05,42.5,27.927,27.927,0,0,1,8.07,17.48L18.58,28l-1.96,1.96a8.941,8.941,0,0,0-1.84,10.07,19.046,19.046,0,0,0,9.19,9.19,8.941,8.941,0,0,0,10.07-1.84L36,45.41,46.52,55.93A27.866,27.866,0,0,1,32,60Zm18.28-6.79c-.65.57-1.35,1.1-2.05,1.6L37.41,44l1.88-1.88a1.008,1.008,0,0,1,1.42,0l9.62,9.62a1.032,1.032,0,0,1,.3.76A.976.976,0,0,1,50.28,53.21Z"/><path d="M55.289,50.29a1,1,0,0,1-.8-1.6A27.738,27.738,0,0,0,60,32,28.032,28.032,0,0,0,32,4,27.738,27.738,0,0,0,15.307,9.512a1,1,0,0,1-1.194-1.6A29.72,29.72,0,0,1,32,2,30.034,30.034,0,0,1,62,32a29.72,29.72,0,0,1-5.908,17.887A1,1,0,0,1,55.289,50.29Z"/><path d="M52.419,47.42a1,1,0,0,1-.814-1.58A23.746,23.746,0,0,0,56,32,24.027,24.027,0,0,0,32,8,23.746,23.746,0,0,0,18.16,12.4,1,1,0,1,1,17,10.765,25.74,25.74,0,0,1,32,6,26.03,26.03,0,0,1,58,32a25.74,25.74,0,0,1-4.765,15A1,1,0,0,1,52.419,47.42Z"/><path d="M49.539,44.54a1,1,0,0,1-.831-1.554A19.759,19.759,0,0,0,52,32,20.023,20.023,0,0,0,32,12a19.759,19.759,0,0,0-10.986,3.292,1,1,0,1,1-1.108-1.665A21.744,21.744,0,0,1,32,10,22.025,22.025,0,0,1,54,32a21.744,21.744,0,0,1-3.627,12.094A1,1,0,0,1,49.539,44.54Z"/><path d="M34,36H28a1,1,0,0,1-1-1V33.829a2.978,2.978,0,0,1,.879-2.122l4.828-4.828A1,1,0,0,0,33,26.171V26a2,2,0,0,0-4,0v1a1,1,0,0,1-2,0V26a4,4,0,0,1,8,0v.171a2.978,2.978,0,0,1-.879,2.122l-4.828,4.828a1,1,0,0,0-.293.708V34h5a1,1,0,0,1,0,2Z"/><path d="M43,36a1,1,0,0,1-1-1V34H37a1,1,0,0,1-.857-1.515l6-10A1,1,0,0,1,44,23v9h1a1,1,0,0,1,0,2H44v1A1,1,0,0,1,43,36Zm-4.234-4H42V26.61Z"/></g></svg>
