<svg height="512" viewBox="0 0 64 64" width="512" xmlns="http://www.w3.org/2000/svg"><g id="Contract"><path d="m61.09 25.68-16.97-16.97a3 3 0 0 0 -4.24 0l-2.83 2.83a2.987 2.987 0 0 0 -.58 3.4l-.37.37a2.973 2.973 0 0 1 -2.12.88h-2.34a4.562 4.562 0 0 0 -1.11.14l-2.8-2.8a2.984 2.984 0 0 0 -.57-3.4l-2.85-2.84a3.05 3.05 0 0 0 -4.22 0l-16.99 16.98a3.006 3.006 0 0 0 0 4.23l2.84 2.84a2.953 2.953 0 0 0 3.4.58l5.08 5.07a4 4 0 0 0 2.83 6.83 2.477 2.477 0 0 0 .27-.03 3.989 3.989 0 0 0 1.15 3.1 3.939 3.939 0 0 0 2.82 1.17c.1 0 .18-.02.27-.02a3.994 3.994 0 0 0 3.98 4.27c.09 0 .18-.03.27-.03a3.957 3.957 0 0 0 1.14 3.1 4.008 4.008 0 0 0 5.66 0l1.41 1.41a4 4 0 0 0 6.76-2.07 3.961 3.961 0 0 0 5.7-3.86 2.477 2.477 0 0 0 .27.03 4 4 0 0 0 2.83-1.17 3.957 3.957 0 0 0 1.14-3.1 2.477 2.477 0 0 0 .27.03 4 4 0 0 0 2.83-6.83l-2.83-2.83 3.62-3.69a2.909 2.909 0 0 0 1.33.33 2.956 2.956 0 0 0 2.12-.88l2.83-2.83a2.994 2.994 0 0 0 0-4.24zm-52.33 4.25a1.022 1.022 0 0 1 -1.4 0l-2.84-2.85a.984.984 0 0 1 0-1.4l16.98-16.98a.984.984 0 0 1 .7-.29.967.967 0 0 1 .7.29l2.84 2.84a.981.981 0 0 1 .01 1.39c-.01.01-.02.01-.03.02zm7.08 11.3a1.992 1.992 0 0 1 0-2.82l4.24-4.25a2 2 0 0 1 2.83 2.83l-4.24 4.24a2.041 2.041 0 0 1 -2.83 0zm4.24 4.25a2 2 0 0 1 0-2.83l4.24-4.24a2 2 0 1 1 2.83 2.82l-4.24 4.25a2.061 2.061 0 0 1 -2.83 0zm4.24 4.24a2 2 0 0 1 0-2.83l4.24-4.24a2.033 2.033 0 0 1 1.42-.59 2.005 2.005 0 0 1 1.41 3.42l-4.24 4.24a2.051 2.051 0 0 1 -2.83 0zm7.07 4.24a2 2 0 0 1 -2.83-2.83l2.83-2.82a1.992 1.992 0 0 1 2.83 0 1.98 1.98 0 0 1 0 2.82zm21.22-12.73a2 2 0 0 1 -2.83 2.83l-2.12-2.12a1 1 0 0 0 -1.42 1.42l2.12 2.12a2 2 0 1 1 -2.82 2.83l-2.13-2.13a1 1 0 0 0 -1.41 0 1.008 1.008 0 0 0 0 1.42l2.12 2.12a2 2 0 0 1 -2.83 2.83l-2.12-2.12a.983.983 0 0 0 -.42-.24.948.948 0 0 0 -.99.24 1 1 0 0 0 0 1.41l.7.71a2 2 0 1 1 -2.82 2.83l-1.42-1.42 1.42-1.41a4.008 4.008 0 0 0 0-5.66 3.881 3.881 0 0 0 -2.09-1.06 3.961 3.961 0 0 0 -3.84-5.74 4 4 0 0 0 -1.15-3.1 3.924 3.924 0 0 0 -3.09-1.14 3.989 3.989 0 0 0 -1.15-3.1 4.09 4.09 0 0 0 -5.65 0l-2.83 2.83-4.96-4.95 15.56-15.56 2.17 2.17a4.934 4.934 0 0 0 -.51.42l-5.19 5.19a4.008 4.008 0 0 0 0 5.66 4.09 4.09 0 0 0 5.65 0l2.13-2.13a5.022 5.022 0 0 1 7.07 0zm-2.84-5.66-10.6-10.6a7.007 7.007 0 0 0 -9.9 0l-2.12 2.12a2.041 2.041 0 0 1 -2.83 0 2 2 0 0 1 0-2.83l5.19-5.19a2.828 2.828 0 0 1 .97-.64 1.176 1.176 0 0 0 .2-.07 3.127 3.127 0 0 1 .96-.17h2.34a4.97 4.97 0 0 0 3.53-1.46l.25-.24 15.52 15.52zm9.91-7.06-2.83 2.82a1.014 1.014 0 0 1 -1.41 0l-16.98-16.97a1 1 0 0 1 0-1.41l2.83-2.83a1.014 1.014 0 0 1 1.42 0l16.97 16.97a1.008 1.008 0 0 1 0 1.42z"/></g></svg>