<?xml version="1.0"?>
<svg xmlns="http://www.w3.org/2000/svg" viewBox="0 0 64 64" width="512" height="512"><g id="Domain"><path d="M59,2H5A3,3,0,0,0,2,5V59a3,3,0,0,0,3,3H59a3,3,0,0,0,3-3V5A3,3,0,0,0,59,2ZM4,5A1,1,0,0,1,5,4H59a1,1,0,0,1,1,1v9H4ZM60,59a1,1,0,0,1-1,1H5a1,1,0,0,1-1-1V16H60Z"/><path d="M57,6H29a1,1,0,0,0-1,1v4a1,1,0,0,0,1,1H57a1,1,0,0,0,1-1V7A1,1,0,0,0,57,6Zm-1,4H30V8H56Z"/><path d="M9,6a3,3,0,1,0,3,3A3,3,0,0,0,9,6Zm0,4a1,1,0,1,1,1-1A1,1,0,0,1,9,10Z"/><path d="M16,6a3,3,0,1,0,3,3A3,3,0,0,0,16,6Zm0,4a1,1,0,1,1,1-1A1,1,0,0,1,16,10Z"/><path d="M23,6a3,3,0,1,0,3,3A3,3,0,0,0,23,6Zm0,4a1,1,0,1,1,1-1A1,1,0,0,1,23,10Z"/><path d="M32,58A20,20,0,1,0,12,38,20.023,20.023,0,0,0,32,58ZM17.044,48h5.4a19.066,19.066,0,0,0,3.715,7.006A18.072,18.072,0,0,1,17.044,48ZM49.949,37H42.973a34.818,34.818,0,0,0-.862-7H48.1A17.834,17.834,0,0,1,49.949,37ZM31,48v7.875c-2.641-.615-4.977-3.619-6.432-7.875Zm-7.017-2a32.135,32.135,0,0,1-.957-7H31v7ZM33,55.875V48h6.432C37.977,52.256,35.641,55.26,33,55.875ZM33,46V39h7.974a32.135,32.135,0,0,1-.957,7Zm9.973-7h6.976A17.834,17.834,0,0,1,48.1,46h-5.99A34.818,34.818,0,0,0,42.973,39Zm-2-2H33V30h7.017A32.135,32.135,0,0,1,40.974,37ZM33,28V20.125c2.641.615,4.977,3.619,6.432,7.875Zm-2-7.875V28H24.568C26.023,23.744,28.359,20.74,31,20.125ZM31,30v7H23.026a32.135,32.135,0,0,1,.957-7Zm-9.973,7H14.051A17.834,17.834,0,0,1,15.9,30h5.99A34.818,34.818,0,0,0,21.027,37Zm0,2a34.818,34.818,0,0,0,.862,7H15.9a17.834,17.834,0,0,1-1.848-7ZM37.846,55.006A19.066,19.066,0,0,0,41.561,48h5.4A18.072,18.072,0,0,1,37.846,55.006ZM46.956,28h-5.4a19.066,19.066,0,0,0-3.715-7.006A18.072,18.072,0,0,1,46.956,28Zm-20.8-7.006A19.066,19.066,0,0,0,22.439,28H17.044A18.072,18.072,0,0,1,26.154,20.994Z"/></g></svg>
