<?xml version="1.0"?>
<svg xmlns="http://www.w3.org/2000/svg" viewBox="0 0 64 64" width="512" height="512"><g id="Tools"><path d="M59.92,51.435,46.234,37.749a2.993,2.993,0,0,0-4.82-3.406L40,35.757,37.663,33.42,47.942,23.133a2.971,2.971,0,0,1,2.5-.84A9.991,9.991,0,0,0,60.651,8.057a1,1,0,0,0-1.608-.274L53.826,13H51V10.174l5.217-5.217a1,1,0,0,0-.274-1.608A9.992,9.992,0,0,0,41.707,13.561a2.974,2.974,0,0,1-.844,2.5L30.589,26.346,15.029,10.787l.707-.707a1,1,0,0,0-.152-1.539L7.1,2.884a1,1,0,0,0-1.262.125L3.009,5.837A1,1,0,0,0,2.884,7.1l5.657,8.485a1,1,0,0,0,.733.44.842.842,0,0,0,.1,0,1,1,0,0,0,.707-.293l.707-.707L26.346,30.588l-9.293,9.285a3.094,3.094,0,0,1-2.57.843,9.938,9.938,0,0,0-8.2,2.857,10.062,10.062,0,0,0-.2,13.944A9.92,9.92,0,0,0,13.2,60.646h.151a10,10,0,0,0,9.932-11.189,3.006,3.006,0,0,1,.845-2.51l9.294-9.285L35.757,40l-1.415,1.416a2.99,2.99,0,0,0,3.407,4.818L51.436,59.92a6,6,0,1,0,8.484-8.485ZM42.273,17.481a4.957,4.957,0,0,0,1.42-4.157A7.994,7.994,0,0,1,53.7,4.641L49.293,9.053A1,1,0,0,0,49,9.76V14a1,1,0,0,0,1,1h4.24a1,1,0,0,0,.707-.293L59.358,10.3a7.992,7.992,0,0,1-8.677,10.012,4.951,4.951,0,0,0-4.158,1.416L36.249,32.006,32,27.76ZM5,6.671,6.671,5,13.46,9.528,9.528,13.459Zm17.71,38.862A4.988,4.988,0,0,0,21.3,49.7,8.007,8.007,0,1,1,14.259,42.7a5.083,5.083,0,0,0,4.208-1.416L27.761,32l4.245,4.245ZM12.2,13.615,13.615,12.2l24.971,24.97-1.415,1.414ZM35.758,44.243a1,1,0,0,1,0-1.415l2.119-2.119,0,0,2.828-2.829h0l2.121-2.121a1,1,0,0,1,1.414,1.415l-7.07,7.071A1,1,0,0,1,35.758,44.243ZM58.506,58.506a4.1,4.1,0,0,1-5.656,0L39.293,44.95l2.829-2.829,2.828-2.828L58.506,52.849a4,4,0,0,1,0,5.657Z"/><path d="M44.949,43.536a1,1,0,0,0-1.414,1.414L55.678,57.092a1,1,0,0,0,1.414-1.414Z"/><path d="M15.254,45.48a1,1,0,0,0-.966-.259l-4.461,1.2a1,1,0,0,0-.707.707L7.925,51.585a1,1,0,0,0,.259.966l3.265,3.266a1,1,0,0,0,.966.259l4.462-1.2a1,1,0,0,0,.707-.707l1.2-4.462a1,1,0,0,0-.258-.965ZM15.8,53.1l-3.347.9-2.449-2.45.9-3.346,3.346-.9,2.45,2.449Z"/><path d="M36.707,28.707l7-7a1,1,0,0,0-1.414-1.414l-7,7a1,1,0,1,0,1.414,1.414Z"/><path d="M27.293,35.293l-6,6a1,1,0,1,0,1.414,1.414l6-6a1,1,0,0,0-1.414-1.414Z"/></g></svg>
