<svg height="512" viewBox="0 0 64 64" width="512" xmlns="http://www.w3.org/2000/svg"><path d="m26 14a1 1 0 0 1 -1-1 7.008 7.008 0 0 1 7-7 1 1 0 0 1 0 2 5.006 5.006 0 0 0 -5 5 1 1 0 0 1 -1 1z"/><path d="m47 58a3 3 0 1 1 3-3 3 3 0 0 1 -3 3zm0-4a1 1 0 1 0 1 1 1 1 0 0 0 -1-1z"/><path d="m17 58a3 3 0 1 1 3-3 3 3 0 0 1 -3 3zm0-4a1 1 0 1 0 1 1 1 1 0 0 0 -1-1z"/><path d="m50 25a3 3 0 1 1 -3-3 3 3 0 0 1 3 3zm-2 0a1 1 0 1 0 -1 1 1 1 0 0 0 1-1z"/><path d="m49 18h-7.214a11 11 0 1 0 -19.572 0h-7.214a5.006 5.006 0 0 0 -5 5v34a5.006 5.006 0 0 0 5 5h34a5.006 5.006 0 0 0 5-5v-34a5.006 5.006 0 0 0 -5-5zm-17-14a9 9 0 1 1 -9 9 9.011 9.011 0 0 1 9-9zm3 36v-6.313a7 7 0 1 1 -6 0v6.313a3 3 0 0 0 6 0zm-6-8.487a9 9 0 1 0 6 0v-1.058a10 10 0 1 1 -6 0zm4 8.487a1 1 0 0 1 -2 0v-16.051c.33.03.662.051 1 .051s.67-.021 1-.051zm19 17a3 3 0 0 1 -3 3h-34a3 3 0 0 1 -3-3v-34a3 3 0 0 1 3-3h8.521a11.029 11.029 0 0 0 5.479 3.574v4.811a12 12 0 1 0 6 0v-4.811a11.029 11.029 0 0 0 5.479-3.574h8.521a3 3 0 0 1 3 3z"/><path d="m17 22a3 3 0 1 0 3 3 3 3 0 0 0 -3-3zm0 4a1 1 0 1 1 1-1 1 1 0 0 1 -1 1z"/></svg>