<svg height="512" viewBox="0 0 64 64" width="512" xmlns="http://www.w3.org/2000/svg"><path d="m56 31.08v-2.08a1 1 0 0 0 1-1v-1a25 25 0 0 0 -50 0v1a1 1 0 0 0 1 1v2.08a7 7 0 0 0 -6 6.92v6a7.008 7.008 0 0 0 7 7h7a3 3 0 0 0 3-3v-14a3 3 0 0 0 -3-3h-2v-2a1 1 0 0 0 1-1v-1a17 17 0 0 1 34 0v1a1 1 0 0 0 1 1v2h-2a3 3 0 0 0 -3 3v14a3 3 0 0 0 3 3h2v2a1 1 0 0 1 -1 1h-11.184a3 3 0 0 0 -2.816-2h-6a3 3 0 0 0 -3 3v4a3 3 0 0 0 3 3h6a3 3 0 0 0 2.816-2h11.184a7.008 7.008 0 0 0 7-7v-2.08a7 7 0 0 0 6-6.92v-6a7 7 0 0 0 -6-6.92zm-52 12.92v-6a5.008 5.008 0 0 1 4-4.9v15.8a5.008 5.008 0 0 1 -4-4.9zm13-10h-2a1 1 0 0 0 0 2h2v1h-2a1 1 0 0 0 0 2h2v1h-2a1 1 0 0 0 0 2h2v1h-2a1 1 0 0 0 0 2h2v1h-2a1 1 0 0 0 0 2h2a1 1 0 0 1 -1 1h-6v-16h6a1 1 0 0 1 1 1zm-5-3h-2v-2h2zm20-23a19.021 19.021 0 0 0 -19 19h-4a23 23 0 0 1 46 0h-4a19.021 19.021 0 0 0 -19-19zm20 21h2v2h-2zm-5 19h2a1 1 0 0 0 0-2h-2v-1h2a1 1 0 0 0 0-2h-2v-1h2a1 1 0 0 0 0-2h-2v-1h2a1 1 0 0 0 0-2h-2v-1h2a1 1 0 0 0 0-2h-2a1 1 0 0 1 1-1h6v16h-6a1 1 0 0 1 -1-1zm-12 12h-6a1 1 0 0 1 -1-1v-4a1 1 0 0 1 1-1h6a1 1 0 0 1 1 1v4a1 1 0 0 1 -1 1zm19-7a5.006 5.006 0 0 1 -5 5h-11v-2h11a3 3 0 0 0 3-3v-2h2zm6-9a5.008 5.008 0 0 1 -4 4.9v-15.8a5.008 5.008 0 0 1 4 4.9z"/></svg>