<svg height="492pt" viewBox="0 -6 492.13335 492" width="492pt" xmlns="http://www.w3.org/2000/svg"><path d="m471.917969 370.90625c-16.453125-9.707031-36.109375-12.429688-54.582031-7.558594-3.070313.832032-6.082032 1.855469-9.015626 3.070313 2.476563-5.007813 4.621094-10.128907 6.621094-15.296875.734375.300781 1.507813.488281 2.296875.554687 1 .046875 2 .0625 2.992188.0625 38.585937-.066406 70.273437-30.503906 71.894531-69.054687.183594-4.414063-3.25-8.140625-7.664062-8.320313-19.089844-.851562-37.722657 5.988281-51.734376 18.984375-2.171874 2.03125-4.21875 4.195313-6.128906 6.480469.890625-11.132813.757813-22.324219-.398437-33.433594 36.578125-10.265625 58.84375-47.234375 50.816406-84.367187-.929687-4.320313-5.1875-7.066406-9.503906-6.136719-23.890625 5.164063-43.519531 22.101563-52.128907 44.976563-1.550781-4.128907-3.257812-8.222657-5.121093-12.289063 13.855469-36.386719-3.703125-77.195313-39.648438-92.160156-4.078125-1.6875-8.753906.25-10.445312 4.328125-14.539063 34.984375.582031 75.242187 34.558593 92 .027344.152344.066407.300781.113282.449218 2.867187 6.113282 5.371094 12.390626 7.503906 18.800782-14.492188-14.703125-34.589844-22.484375-55.199219-21.367188-4.414062.25-7.785156 4.035156-7.53125 8.445313 2.222657 37.953125 33.542969 67.65625 71.5625 67.863281-.132812 15.796875-2.515625 31.488281-7.082031 46.609375-8.382812-26.097656-30.859375-45.175781-57.976562-49.199219-4.371094-.644531-8.4375 2.378906-9.078126 6.75-5.144531 35.445313 16.519532 69.289063 50.863282 79.449219-3.921875 6.640625-8.289063 13.007813-13.070313 19.054687-6.875 8.652344-14.582031 16.609376-23.007812 23.753907 8.71875-30.359375-3.339844-62.855469-29.753907-80.175781-3.695312-2.421876-8.648437-1.390626-11.070312 2.304687-20.359375 31.074219-13.730469 72.539063 15.300781 95.71875-8.707031 5.015625-17.851562 9.238281-27.316406 12.609375-3.6875 1.285156-5.90625 5.046875-5.246094 8.898438.65625 3.847656 3.996094 6.660156 7.902344 6.652343.902344-.003906 1.800781-.15625 2.652344-.457031 8.351562-2.945312 16.476562-6.488281 24.3125-10.605469 20.992187 32.121094 63.527343 42.066407 96.585937 22.582031 3.804688-2.242187 5.074219-7.144531 2.832032-10.953124-13.433594-22.796876-38.285157-36.394532-64.730469-35.414063 5.625-4.824219 10.953125-9.988281 15.945312-15.464844 10.25 5.476563 21.683594 8.367188 33.304688 8.417969 6.175781-.015625 12.324219-.824219 18.296875-2.402344 18.5-4.769531 34.320312-16.746094 43.933594-33.253906 2.207031-3.804688.929687-8.671875-2.855469-10.90625zm-28.351563-65.792969c8.707032-8.058593 19.761719-13.128906 31.550782-14.460937-4.777344 23.851562-24.378907 41.914062-48.542969 44.726562 2.296875-11.640625 8.25-22.242187 16.992187-30.265625zm18.992188-111.109375c1.34375 24.28125-13.117188 46.65625-35.808594 55.40625-1.316406-24.273437 13.136719-46.636718 35.808594-55.40625zm-110.320313 108.085938c23.207031 7.265625 39.101563 28.644531 39.367188 52.960937-23.199219-7.273437-39.089844-28.648437-39.367188-52.960937zm-35.871093 84.273437c-2.453126-11.613281-1.121094-23.703125 3.800781-34.503906 18.050781 16.328125 23.484375 42.449219 13.445312 64.625-8.8125-7.945313-14.859375-18.5-17.246093-30.121094zm92.902343 74.550781c-22.625 8.902344-48.414062 2.226563-63.878906-16.535156 22.628906-8.894531 48.410156-2.222656 63.878906 16.535156zm-34.320312-291.199218c-4.574219-10.949219-5.519531-23.074219-2.703125-34.601563 20.734375 12.71875 30.929687 37.332031 25.257812 60.984375-10.140625-6.160156-18.042968-15.398437-22.5625-26.367187zm-18.222657 57.039062c24.195313 2.425782 44.082032 20.152344 49.257813 43.914063-24.191406-2.429688-44.074219-20.144531-49.265625-43.898438zm35.441407 170.785156c15.414062-18.820312 41.210937-25.550781 63.855469-16.65625-15.429688 18.804688-41.210938 25.535157-63.863282 16.671876zm0 0"/><path d="m193.160156 443.8125c-9.460937-3.359375-18.59375-7.566406-27.296875-12.570312 29.03125-23.179688 35.660157-64.644532 15.304688-95.71875-2.421875-3.691407-7.378907-4.722657-11.074219-2.304688-26.40625 17.320312-38.460938 49.816406-29.742188 80.167969-8.429687-7.144531-16.136718-15.101563-23.007812-23.75-4.785156-6.050781-9.152344-12.417969-13.074219-19.058594 34.34375-10.160156 56.011719-44.003906 50.863281-79.445313-.640624-4.375-4.707031-7.398437-9.078124-6.753906-27.117188 4.027344-49.59375 23.101563-57.976563 49.199219-4.5625-15.121094-6.949219-30.8125-7.078125-46.605469 38.015625-.214844 69.332031-29.914062 71.558594-67.867187.253906-4.410157-3.117188-8.191407-7.527344-8.445313-20.613281-1.121094-40.714844 6.660156-55.199219 21.367188 2.128907-6.410156 4.636719-12.6875 7.503907-18.800782.042968-.148437.082031-.296874.109374-.449218 33.976563-16.757813 49.101563-57.015625 34.5625-92-1.691406-4.078125-6.367187-6.015625-10.449218-4.328125-35.957032 14.953125-53.527344 55.765625-39.679688 92.160156-1.867187 4.058594-3.574218 8.15625-5.121094 12.289063-8.597656-22.886719-28.230468-39.835938-52.128906-45.007813-4.316406-.929687-8.570312 1.816406-9.503906 6.136719-8.027344 37.132812 14.238281 74.101562 50.816406 84.367187-1.15625 11.109375-1.289062 22.300781-.398437 33.433594-1.910157-2.285156-3.957031-4.449219-6.128907-6.480469-14.003906-13.011718-32.648437-19.851562-51.742187-18.984375-4.414063.179688-7.84375 3.90625-7.6640625 8.320313 1.6171875 38.550781 33.3085935 68.992187 71.8945315 69.054687.992187 0 1.992187 0 2.992187-.0625.789063-.066406 1.5625-.253906 2.296875-.554687 2 5.167968 4.144532 10.289062 6.625 15.296875-2.9375-1.214844-5.949218-2.238281-9.019531-3.070313-18.472656-4.875-38.128906-2.152344-54.582031 7.558594-3.808594 2.234375-5.089844 7.132812-2.855469 10.945312 9.609375 16.503907 25.421875 28.480469 43.910156 33.253907 5.972657 1.578125 12.121094 2.386719 18.296875 2.402343 11.621094-.054687 23.050782-2.9375 33.304688-8.410156 5.015625 5.476563 10.359375 10.644532 16 15.472656-26.445313-.980468-51.300782 12.609376-64.746094 35.402344-2.238281 3.804688-.972656 8.707032 2.832031 10.949219 33.070313 19.476563 75.609375 9.515625 96.585938-22.621094 7.839843 4.113281 15.964843 7.660157 24.3125 10.605469.851562.300781 1.75.453125 2.65625.457031 3.902343.007813 7.242187-2.804687 7.902343-6.652343.65625-3.851563-1.5625-7.613282-5.246093-8.898438zm-38.402344-61.792969c2.390626-11.621093 8.433594-22.175781 17.25-30.121093 10.039063 22.175781 4.601563 48.296874-13.449218 64.625-4.941406-10.808594-6.285156-22.917969-3.832032-34.542969zm-14.824218-79.886719c-.277344 24.3125-16.164063 45.683594-39.367188 52.957032.246094-24.320313 16.128906-45.71875 39.335938-53zm-101.472656-74.578124c-6.460938-9.949219-9.574219-21.707032-8.878907-33.550782 22.671875 8.769532 37.125 31.132813 35.808594 55.40625-11.078125-4.222656-20.515625-11.882812-26.929687-21.855468zm-21.4375 63.097656c24.167968 2.800781 43.773437 20.867187 48.542968 44.726562-24.164062-2.816406-43.761718-20.875-48.542968-44.726562zm118.398437-63.882813c-5.179687 23.757813-25.058594 41.484375-49.253906 43.914063 5.167969-23.765625 25.054687-41.492188 49.253906-43.914063zm-15.519531-91.636719c5.703125 23.652344-4.5 48.285157-25.253906 60.980469-5.675782-23.652343 4.519531-48.265625 25.253906-60.980469zm-83.777344 245.765626c22.644531-8.890626 48.441406-2.164063 63.859375 16.65625-22.648437 8.863281-48.425781 2.136718-63.859375-16.65625zm46.753906 80c15.46875-18.761719 41.253906-25.4375 63.878906-16.535157-15.460937 18.777344-41.253906 25.460938-63.886718 16.550781zm0 0"/><path d="m309.886719 196.492188c5.386719-3.835938 7.625-10.742188 5.519531-17.007813l-17.542969-53.992187 45.925781-33.371094c5.339844-3.863282 7.578126-10.726563 5.546876-17-2.03125-6.269532-7.875-10.511719-14.464844-10.511719h-56.800782l-17.527343-53.992187c-2.019531-6.285157-7.867188-10.5507818-14.472657-10.5507818-6.605468 0-12.453124 4.2656248-14.472656 10.5507818l-17.527344 53.992187h-56.800781c-6.597656-.015625-12.457031 4.226563-14.496093 10.503906-2.039063 6.277344.203124 13.152344 5.554687 17.019531l45.925781 33.359376-17.542968 53.992187c-2.058594 6.273437.167968 13.15625 5.507812 17.035156 5.34375 3.882813 12.578125 3.871094 17.90625-.027343l45.945312-33.378907 45.921876 33.378907c5.316406 3.933593 12.578124 3.933593 17.894531 0zm-54.878907-46.65625c-5.332031-3.878907-12.550781-3.878907-17.882812 0l-44.421875 32.277343 16.96875-52.214843c2.042969-6.269532-.183594-13.140626-5.519531-17.015626l-44.433594-32.273437h54.910156c6.59375.007813 12.441406-4.238281 14.472656-10.511719l16.96875-52.222656 16.96875 52.214844c2.03125 6.277344 7.875 10.527344 14.472657 10.519531h54.910156l-44.421875 32.273437c-5.339844 3.871094-7.574219 10.746094-5.53125 17.015626l16.96875 52.222656zm0 0"/></svg>