<?xml version="1.0" encoding="iso-8859-1"?>
<!-- Generator: Adobe Illustrator 19.0.0, SVG Export Plug-In . SVG Version: 6.00 Build 0)  -->
<svg version="1.1" id="Capa_1" xmlns="http://www.w3.org/2000/svg" xmlns:xlink="http://www.w3.org/1999/xlink" x="0px" y="0px"
	 viewBox="0 0 480.278 480.278" style="enable-background:new 0 0 480.278 480.278;" xml:space="preserve">
<g>
	<g>
		<g>
			<path d="M240.27,96c-97.202,0-176,78.798-176,176s78.798,176,176,176s176-78.798,176-176C416.16,174.844,337.427,96.11,240.27,96
				z M352.27,280h47.592c-4.17,81.932-69.659,147.422-151.592,151.592V392c0-4.418-3.582-8-8-8s-8,3.582-8,8v39.592
				C150.338,427.422,84.848,361.932,80.678,280h39.592c4.418,0,8-3.582,8-8s-3.582-8-8-8H80.678
				c4.17-81.933,69.659-147.422,151.592-151.592V152c0,4.418,3.582,8,8,8s8-3.582,8-8v-39.592
				c36.833,1.798,71.897,16.333,99.2,41.12L250.55,250.4c-3.202-1.566-6.716-2.386-10.28-2.4c-13.255,0-24,10.745-24,24
				s10.745,24,24,24s24-10.745,24-24c-0.014-3.564-0.834-7.078-2.4-10.28l96.88-96.88c24.776,27.294,39.307,62.342,41.112,99.16
				H352.27c-4.418,0-8,3.582-8,8S347.852,280,352.27,280z M248.27,272c0,4.418-3.582,8-8,8s-8-3.582-8-8s3.582-8,8-8
				S248.27,267.582,248.27,272z"/>
			<path d="M448.102,264.294c-1.463-38.677-13.684-76.18-35.288-108.294l19.752-19.752c3.123-3.124,3.123-8.188,0-11.312l-45.2-45.2
				c-3.124-3.123-8.188-3.123-11.312,0l-19.784,19.72c-32.002-21.606-69.414-33.819-108-35.256V16h40c4.418,0,8-3.582,8-8
				s-3.582-8-8-8h-96c-4.418,0-8,3.582-8,8s3.582,8,8,8h40v48.2C117.415,68.546,27.83,165.177,32.176,280.032
				s100.977,204.44,215.832,200.094S452.448,379.149,448.102,264.294z M381.71,96.672l33.888,33.888l-12.384,12.384
				c-9.967-12.551-21.337-23.921-33.888-33.888L381.71,96.672z M240.27,464c-106.039,0-192-85.961-192-192s85.961-192,192-192
				s192,85.961,192,192C432.147,377.987,346.258,463.877,240.27,464z"/>
		</g>
	</g>
</g>
<g>
</g>
<g>
</g>
<g>
</g>
<g>
</g>
<g>
</g>
<g>
</g>
<g>
</g>
<g>
</g>
<g>
</g>
<g>
</g>
<g>
</g>
<g>
</g>
<g>
</g>
<g>
</g>
<g>
</g>
</svg>
