<?xml version="1.0" encoding="iso-8859-1"?>
<!-- Generator: Adobe Illustrator 19.0.0, SVG Export Plug-In . SVG Version: 6.00 Build 0)  -->
<svg version="1.1" id="Capa_1" xmlns="http://www.w3.org/2000/svg" xmlns:xlink="http://www.w3.org/1999/xlink" x="0px" y="0px"
	 viewBox="0 0 480.058 480.058" style="enable-background:new 0 0 480.058 480.058;" xml:space="preserve">
<g>
	<g>
		<g>
			<path d="M280.029,136.058h-128c-4.418,0-8,3.582-8,8s3.582,8,8,8h128c4.418,0,8-3.582,8-8S284.447,136.058,280.029,136.058z"/>
			<path d="M328.029,136.058h-16c-4.418,0-8,3.582-8,8s3.582,8,8,8h16c4.418,0,8-3.582,8-8S332.447,136.058,328.029,136.058z"/>
			<path d="M280.029,232.058h-128c-4.418,0-8,3.582-8,8s3.582,8,8,8h128c4.418,0,8-3.582,8-8S284.447,232.058,280.029,232.058z"/>
			<path d="M328.029,232.058h-16c-4.418,0-8,3.582-8,8s3.582,8,8,8h16c4.418,0,8-3.582,8-8S332.447,232.058,328.029,232.058z"/>
			<path d="M280.029,328.058h-128c-4.418,0-8,3.582-8,8s3.582,8,8,8h128c4.418,0,8-3.582,8-8S284.447,328.058,280.029,328.058z"/>
			<path d="M328.029,328.058h-16c-4.418,0-8,3.582-8,8s3.582,8,8,8h16c4.418,0,8-3.582,8-8S332.447,328.058,328.029,328.058z"/>
			<path d="M80.029,248.058c4.418,0,8-3.582,8-8s-3.582-8-8-8c-22.091,0-40-17.909-40-40s17.909-40,40-40c0.376,0,0.704,0,1.032,0
				c4.386,0.534,8.374-2.589,8.908-6.975c0.118-0.971,0.057-1.956-0.18-2.905c-1.161-4.617-1.752-9.359-1.76-14.12
				c0.04-30.911,25.089-55.96,56-56c6.268-0.009,12.491,1.055,18.4,3.144c3.737,1.322,7.878-0.291,9.736-3.792
				c26.877-50.761,89.815-70.123,140.576-43.246c27.226,14.416,46.66,40.16,53.064,70.294c0.846,4.124,4.762,6.871,8.928,6.264
				c3.079-0.437,6.186-0.659,9.296-0.664c35.346-0.01,64.008,28.635,64.019,63.981c0.009,29.874-20.651,55.781-49.779,62.419
				c-4.31,0.972-7.016,5.254-6.044,9.564c0.972,4.31,5.254,7.016,9.564,6.044c43.083-9.798,70.065-52.667,60.267-95.749
				c-8.284-36.424-40.672-62.267-78.027-62.259c-1.44,0-2.848,0.04-4.264,0.112C362.169,24.275,296.108-13.259,232.212,4.337
				c-29.686,8.175-55.094,27.449-70.967,53.833c-5.631-1.404-11.413-2.114-17.216-2.112c-39.746,0.044-71.956,32.254-72,72
				c0.002,2.839,0.167,5.676,0.496,8.496c-30.654,4.107-52.175,32.287-48.068,62.941C28.186,227.326,51.95,248.092,80.029,248.058z"
				/>
			<path d="M472.029,440.058H270.893c-2.913-11.202-11.662-19.951-22.864-22.864v-41.136h104c4.418,0,8-3.582,8-8v-64
				c0-4.418-3.582-8-8-8h-24v-16h24c4.418,0,8-3.582,8-8v-64c0-4.418-3.582-8-8-8h-24v-16h24c4.418,0,8-3.582,8-8v-64
				c0-4.418-3.582-8-8-8h-224c-4.418,0-8,3.582-8,8v64c0,4.418,3.582,8,8,8h24v16h-24c-4.418,0-8,3.582-8,8v64c0,4.418,3.582,8,8,8
				h24v16h-24c-4.418,0-8,3.582-8,8v64c0,4.418,3.582,8,8,8h104v41.136c-11.202,2.913-19.951,11.662-22.864,22.864H8.029
				c-4.418,0-8,3.582-8,8s3.582,8,8,8h201.136c4.339,17.046,21.674,27.347,38.719,23.009c11.304-2.877,20.131-11.704,23.009-23.009
				h201.136c4.418,0,8-3.582,8-8S476.447,440.058,472.029,440.058z M136.029,168.058v-48h208v48H136.029z M312.029,184.058v16h-144
				v-16H312.029z M136.029,264.058v-48h208v48H136.029z M312.029,280.058v16h-144v-16H312.029z M136.029,360.058v-48h208v48H136.029
				z M240.029,464.058c-8.837,0-16-7.163-16-16s7.163-16,16-16s16,7.163,16,16S248.866,464.058,240.029,464.058z"/>
		</g>
	</g>
</g>
<g>
</g>
<g>
</g>
<g>
</g>
<g>
</g>
<g>
</g>
<g>
</g>
<g>
</g>
<g>
</g>
<g>
</g>
<g>
</g>
<g>
</g>
<g>
</g>
<g>
</g>
<g>
</g>
<g>
</g>
</svg>
