<?xml version="1.0" encoding="iso-8859-1"?>
<!-- Generator: Adobe Illustrator 19.0.0, SVG Export Plug-In . SVG Version: 6.00 Build 0)  -->
<svg version="1.1" id="Capa_1" xmlns="http://www.w3.org/2000/svg" xmlns:xlink="http://www.w3.org/1999/xlink" x="0px" y="0px"
	 viewBox="0 0 480 480" style="enable-background:new 0 0 480 480;" xml:space="preserve">
<g>
	<g>
		<path d="M472,168c4.418,0,8-3.582,8-8V64c0-4.418-3.582-8-8-8H8c-4.418,0-8,3.582-8,8v96c0,4.418,3.582,8,8,8h40v16H8
			c-4.418,0-8,3.582-8,8v96c0,4.418,3.582,8,8,8h40v16H8c-4.418,0-8,3.582-8,8v96c0,4.418,3.582,8,8,8h464c4.418,0,8-3.582,8-8v-96
			c0-4.418-3.582-8-8-8h-40v-16h40c4.418,0,8-3.582,8-8v-96c0-4.418-3.582-8-8-8h-40v-16H472z M16,152V72h304.592v80H16z M384,168
			v16H96v-16H384z M80,168v16H64v-16H80z M16,280v-80h304.592v80H16z M384,296v16H96v-16H384z M80,296v16H64v-16H80z M320.592,408
			H16v-80h304.592V408z M464,328v80H336.592v-80H464z M400,312v-16h16v16H400z M464,200v80H336.592v-80H464z M400,184v-16h16v16H400
			z M336.592,152V72H464v80H336.592z"/>
	</g>
</g>
<g>
	<g>
		<rect x="32" y="88" width="16" height="16"/>
	</g>
</g>
<g>
	<g>
		<rect x="56" y="88" width="16" height="16"/>
	</g>
</g>
<g>
	<g>
		<rect x="80" y="88" width="16" height="16"/>
	</g>
</g>
<g>
	<g>
		<rect x="104" y="88" width="16" height="16"/>
	</g>
</g>
<g>
	<g>
		<rect x="128" y="88" width="16" height="16"/>
	</g>
</g>
<g>
	<g>
		<rect x="152" y="88" width="16" height="16"/>
	</g>
</g>
<g>
	<g>
		<rect x="176" y="88" width="16" height="16"/>
	</g>
</g>
<g>
	<g>
		<rect x="200" y="88" width="16" height="16"/>
	</g>
</g>
<g>
	<g>
		<rect x="32" y="120" width="16" height="16"/>
	</g>
</g>
<g>
	<g>
		<rect x="56" y="120" width="16" height="16"/>
	</g>
</g>
<g>
	<g>
		<rect x="80" y="120" width="16" height="16"/>
	</g>
</g>
<g>
	<g>
		<rect x="104" y="120" width="16" height="16"/>
	</g>
</g>
<g>
	<g>
		<rect x="128" y="120" width="16" height="16"/>
	</g>
</g>
<g>
	<g>
		<rect x="152" y="120" width="16" height="16"/>
	</g>
</g>
<g>
	<g>
		<rect x="176" y="120" width="16" height="16"/>
	</g>
</g>
<g>
	<g>
		<rect x="200" y="120" width="16" height="16"/>
	</g>
</g>
<g>
	<g>
		<path d="M440,88h-80c-4.418,0-8,3.582-8,8v32c0,4.418,3.582,8,8,8h80c4.418,0,8-3.582,8-8V96C448,91.582,444.418,88,440,88z
			 M432,120h-64v-16h64V120z"/>
	</g>
</g>
<g>
	<g>
		<rect x="32" y="216" width="16" height="16"/>
	</g>
</g>
<g>
	<g>
		<rect x="56" y="216" width="16" height="16"/>
	</g>
</g>
<g>
	<g>
		<rect x="80" y="216" width="16" height="16"/>
	</g>
</g>
<g>
	<g>
		<rect x="104" y="216" width="16" height="16"/>
	</g>
</g>
<g>
	<g>
		<rect x="128" y="216" width="16" height="16"/>
	</g>
</g>
<g>
	<g>
		<rect x="152" y="216" width="16" height="16"/>
	</g>
</g>
<g>
	<g>
		<rect x="176" y="216" width="16" height="16"/>
	</g>
</g>
<g>
	<g>
		<rect x="200" y="216" width="16" height="16"/>
	</g>
</g>
<g>
	<g>
		<rect x="32" y="248" width="16" height="16"/>
	</g>
</g>
<g>
	<g>
		<rect x="56" y="248" width="16" height="16"/>
	</g>
</g>
<g>
	<g>
		<rect x="80" y="248" width="16" height="16"/>
	</g>
</g>
<g>
	<g>
		<rect x="104" y="248" width="16" height="16"/>
	</g>
</g>
<g>
	<g>
		<rect x="128" y="248" width="16" height="16"/>
	</g>
</g>
<g>
	<g>
		<rect x="152" y="248" width="16" height="16"/>
	</g>
</g>
<g>
	<g>
		<rect x="176" y="248" width="16" height="16"/>
	</g>
</g>
<g>
	<g>
		<rect x="200" y="248" width="16" height="16"/>
	</g>
</g>
<g>
	<g>
		<path d="M440,216h-80c-4.418,0-8,3.582-8,8v32c0,4.418,3.582,8,8,8h80c4.418,0,8-3.582,8-8v-32C448,219.582,444.418,216,440,216z
			 M432,248h-64v-16h64V248z"/>
	</g>
</g>
<g>
	<g>
		<rect x="32" y="344" width="16" height="16"/>
	</g>
</g>
<g>
	<g>
		<rect x="56" y="344" width="16" height="16"/>
	</g>
</g>
<g>
	<g>
		<rect x="80" y="344" width="16" height="16"/>
	</g>
</g>
<g>
	<g>
		<rect x="104" y="344" width="16" height="16"/>
	</g>
</g>
<g>
	<g>
		<rect x="128" y="344" width="16" height="16"/>
	</g>
</g>
<g>
	<g>
		<rect x="152" y="344" width="16" height="16"/>
	</g>
</g>
<g>
	<g>
		<rect x="176" y="344" width="16" height="16"/>
	</g>
</g>
<g>
	<g>
		<rect x="200" y="344" width="16" height="16"/>
	</g>
</g>
<g>
	<g>
		<rect x="32" y="376" width="16" height="16"/>
	</g>
</g>
<g>
	<g>
		<rect x="56" y="376" width="16" height="16"/>
	</g>
</g>
<g>
	<g>
		<rect x="80" y="376" width="16" height="16"/>
	</g>
</g>
<g>
	<g>
		<rect x="104" y="376" width="16" height="16"/>
	</g>
</g>
<g>
	<g>
		<rect x="128" y="376" width="16" height="16"/>
	</g>
</g>
<g>
	<g>
		<rect x="152" y="376" width="16" height="16"/>
	</g>
</g>
<g>
	<g>
		<rect x="176" y="376" width="16" height="16"/>
	</g>
</g>
<g>
	<g>
		<rect x="200" y="376" width="16" height="16"/>
	</g>
</g>
<g>
	<g>
		<path d="M440,344h-80c-4.418,0-8,3.582-8,8v32c0,4.418,3.582,8,8,8h80c4.418,0,8-3.582,8-8v-32C448,347.582,444.418,344,440,344z
			 M432,376h-64v-16h64V376z"/>
	</g>
</g>
<g>
</g>
<g>
</g>
<g>
</g>
<g>
</g>
<g>
</g>
<g>
</g>
<g>
</g>
<g>
</g>
<g>
</g>
<g>
</g>
<g>
</g>
<g>
</g>
<g>
</g>
<g>
</g>
<g>
</g>
</svg>
