<?xml version="1.0" encoding="UTF-8"?>
<svg xmlns="http://www.w3.org/2000/svg" viewBox="0 0 64 64" width="512" height="512"><g id="time-clock-watch-timer-coffee"><path d="M35,26H29.816A3,3,0,0,0,28,24.184V15a1,1,0,0,0-2,0v9.184A2.993,2.993,0,1,0,29.816,28H35a1,1,0,0,0,0-2Zm-8,2a1,1,0,1,1,1-1A1,1,0,0,1,27,28Z"/><path d="M55,50a7.016,7.016,0,0,0,7-7,7,7,0,0,0-6-6.92V35a1,1,0,0,0-1-1H50.98A24.989,24.989,0,1,0,27,52a24.191,24.191,0,0,0,4.77-.48A13.074,13.074,0,0,0,36.1,56H30a1,1,0,0,0-1,1,5,5,0,0,0,5,5H52a5,5,0,0,0,5-5,1,1,0,0,0-1-1H49.9A13.043,13.043,0,0,0,55,50Zm1-5V38.1A5.017,5.017,0,0,1,60,43a4.964,4.964,0,0,1-4.35,4.94A13,13,0,0,0,56,45ZM27,50A23,23,0,1,1,50,27a22.544,22.544,0,0,1-1.12,7H44.65A18.713,18.713,0,0,0,46,27,19,19,0,1,0,27,46a19.281,19.281,0,0,0,3.04-.25,13.121,13.121,0,0,0,.84,3.92A22.576,22.576,0,0,1,27,50Zm4-16a1,1,0,0,0-1,1v8.7a16.791,16.791,0,0,1-2,.24V42a1,1,0,0,0-2,0v1.95a16.892,16.892,0,0,1-6.61-1.77l.98-1.69a1,1,0,1,0-1.74-1l-.98,1.7a17.161,17.161,0,0,1-4.84-4.84l1.7-.98a1,1,0,0,0-1-1.74l-1.69.98A16.892,16.892,0,0,1,10.05,28H12a1,1,0,0,0,0-2H10.05a16.892,16.892,0,0,1,1.77-6.61l1.69.98a1,1,0,1,0,1-1.74l-1.7-.98a17.161,17.161,0,0,1,4.84-4.84l.98,1.7a1,1,0,1,0,1.74-1l-.98-1.69A16.892,16.892,0,0,1,26,10.05V12a1,1,0,0,0,2,0V10.05a16.892,16.892,0,0,1,6.61,1.77l-.98,1.69a1,1,0,0,0,1.74,1l.98-1.7a17.161,17.161,0,0,1,4.84,4.84l-1.7.98a1,1,0,0,0,1,1.74l1.69-.98A16.892,16.892,0,0,1,43.95,26H42a1,1,0,0,0,0,2h1.94a16.41,16.41,0,0,1-1.49,6ZM54.83,58A3.014,3.014,0,0,1,52,60H34a3.014,3.014,0,0,1-2.83-2ZM43,56A11.007,11.007,0,0,1,32,45V36H54v9A11.007,11.007,0,0,1,43,56Z"/><path d="M43,52a7.008,7.008,0,0,1-7-7,1,1,0,0,0-2,0,9.01,9.01,0,0,0,9,9,1,1,0,0,0,0-2Z"/><path d="M35,43a1,1,0,0,0,1-1V41a1,1,0,0,0-2,0v1A1,1,0,0,0,35,43Z"/></g></svg>
