<?xml version="1.0" encoding="UTF-8"?>
<svg xmlns="http://www.w3.org/2000/svg" viewBox="0 0 64 64" width="512" height="512"><g id="basket-shopping-online-package-ecommerce"><path d="M59,24V15a1,1,0,0,0-1-1H49.63l-1.64-2.09A5,5,0,0,0,44.06,10H42.82A3.01,3.01,0,0,0,40,8H24a3.01,3.01,0,0,0-2.82,2H19.94a5,5,0,0,0-3.93,1.91L6.51,24H5a3.009,3.009,0,0,0-3,3v4a2.989,2.989,0,0,0,2.06,2.83L5.74,57.36A5.007,5.007,0,0,0,10.72,62H53.28a5.007,5.007,0,0,0,4.98-4.64l1.68-23.53A2.989,2.989,0,0,0,62,31V27A3.009,3.009,0,0,0,59,24Zm-2-8v7.38L51.2,16Zm-8.34,0,6.28,8H45V16ZM24,10H40a1,1,0,0,1,0,2H24a1,1,0,0,1,0-2Zm-6.41,3.15A2.97,2.97,0,0,1,19.94,12h1.24A3.01,3.01,0,0,0,24,14H40a3.01,3.01,0,0,0,2.82-2h1.24a3,3,0,0,1,2.36,1.15l.67.85H44a1,1,0,0,0-1,1v3H26a1,1,0,0,0-1,1v1H14a1,1,0,0,0-1,1v3H9.06ZM43,20v4H27V20ZM25,22v2H15V22ZM56.27,57.21A3.009,3.009,0,0,1,53.28,60H10.72a3.009,3.009,0,0,1-2.99-2.79L6.07,34H57.93ZM60,31a1,1,0,0,1-1,1H5a1,1,0,0,1-1-1V27a1,1,0,0,1,1-1H59a1,1,0,0,1,1,1Z"/><path d="M57,28H56a1,1,0,0,0,0,2h1a1,1,0,0,0,0-2Z"/><path d="M8,28H7a1,1,0,0,0,0,2H8a1,1,0,0,0,0-2Z"/><path d="M32,58a3,3,0,0,0,3-3V39a3,3,0,0,0-6,0V55A3,3,0,0,0,32,58ZM31,39a1,1,0,0,1,2,0V55a1,1,0,0,1-2,0Z"/><path d="M24,58a3,3,0,0,0,3-3V39a3,3,0,0,0-6,0V55A3,3,0,0,0,24,58ZM23,39a1,1,0,0,1,2,0V55a1,1,0,0,1-2,0Z"/><path d="M40,58a3,3,0,0,0,3-3V39a3,3,0,0,0-6,0V55A3,3,0,0,0,40,58ZM39,39a1,1,0,0,1,2,0V55a1,1,0,0,1-2,0Z"/><path d="M16,58a3,3,0,0,0,3-3V39a3,3,0,0,0-6,0V55A3,3,0,0,0,16,58ZM15,39a1,1,0,0,1,2,0V55a1,1,0,0,1-2,0Z"/><path d="M48,58a3,3,0,0,0,3-3V39a3,3,0,0,0-6,0V55A3,3,0,0,0,48,58ZM47,39a1,1,0,0,1,2,0V55a1,1,0,0,1-2,0Z"/></g></svg>
