<?xml version="1.0"?>
<svg xmlns="http://www.w3.org/2000/svg" viewBox="0 0 64 64" width="512" height="512"><g id="faq-message-question-help-support"><path d="M57,2H17a5,5,0,0,0-5,5V20H7a5,5,0,0,0-5,5V51a5,5,0,0,0,5,5H27.75l10.77,5.88a1.009,1.009,0,0,0,.99-.02A1.012,1.012,0,0,0,40,61V56h7a5,5,0,0,0,5-5V38h5a5,5,0,0,0,5-5V7A5,5,0,0,0,57,2ZM50,51a3.009,3.009,0,0,1-3,3H39a1,1,0,0,0-1,1v4.32l-9.52-5.2A1,1,0,0,0,28,54H7a3.009,3.009,0,0,1-3-3V25a3.009,3.009,0,0,1,3-3h5V33a5,5,0,0,0,5,5h7v5a1.012,1.012,0,0,0,.49.86,1.009,1.009,0,0,0,.99.02L36.25,38H50ZM60,33a3.009,3.009,0,0,1-3,3H36a1,1,0,0,0-.48.12L26,41.32V37a1,1,0,0,0-1-1H17a3.009,3.009,0,0,1-3-3V7a3.009,3.009,0,0,1,3-3H57a3.009,3.009,0,0,1,3,3Z"/><path d="M24,7a1,1,0,0,0-1-1H19a3,3,0,0,0-3,3v4a1,1,0,0,0,2,0V9a1,1,0,0,1,1-1h4A1,1,0,0,0,24,7Z"/><path d="M57,26a1,1,0,0,0-1,1v4a1,1,0,0,1-1,1H51a1,1,0,0,0,0,2h4a3,3,0,0,0,3-3V27A1,1,0,0,0,57,26Z"/><path d="M13,50H9a1,1,0,0,1-1-1V45a1,1,0,0,0-2,0v4a3,3,0,0,0,3,3h4a1,1,0,0,0,0-2Z"/><path d="M39,52h4a3,3,0,0,0,3-3V45a1,1,0,0,0-2,0v4a1,1,0,0,1-1,1H39a1,1,0,0,0,0,2Z"/><path d="M29,14a1,1,0,0,0,0-2H23a1,1,0,0,0-1,1V27a1,1,0,0,0,2,0V19.989L29,20h0a1,1,0,0,0,0-2l-5-.012V14Z"/><path d="M36.961,12.725A1,1,0,0,0,36,12H35a1,1,0,0,0-.961.725l-4,14a1,1,0,1,0,1.922.55L32.9,24H38.1l.936,3.275A1,1,0,0,0,40,28a.977.977,0,0,0,.275-.039,1,1,0,0,0,.686-1.236ZM33.469,22,35.5,14.89,37.531,22Z"/><path d="M51.293,27.707a1,1,0,0,0,1.414-1.414l-.54-.54A4.969,4.969,0,0,0,53,23V17a5,5,0,0,0-10,0v6a4.992,4.992,0,0,0,7.753,4.167ZM48,26a3,3,0,0,1-3-3V17a3,3,0,0,1,6,0v6a2.951,2.951,0,0,1-.3,1.285l-.992-.992a1,1,0,0,0-1.414,1.414l.992.992A2.951,2.951,0,0,1,48,26Z"/></g></svg>
