<?xml version="1.0"?>
<svg xmlns="http://www.w3.org/2000/svg" viewBox="0 0 64 64" width="512" height="512"><g id="info-call-headphone-help-support"><path d="M55,31.07V25A23,23,0,0,0,9,25v6.07A8,8,0,0,0,10,47h7a1,1,0,0,0,1-1V32a1,1,0,0,0-1-1H15V25a17,17,0,0,1,34,0v6H47a1,1,0,0,0-1,1V46a1,1,0,0,0,1,1h4v6a5,5,0,0,1-5,5H36.82A3.01,3.01,0,0,0,34,56H30a3,3,0,0,0,0,6h4a3.01,3.01,0,0,0,2.82-2H46a7.008,7.008,0,0,0,7-7V47h1a8,8,0,0,0,1-15.93ZM34,60H30a1,1,0,0,1,0-2h4a1,1,0,0,1,0,2ZM11,45H10a6,6,0,0,1,0-12h1Zm0-18h2v4H11Zm5,6V45H13V33ZM32,6A19.017,19.017,0,0,0,13,25H11a21,21,0,0,1,42,0H51A19.017,19.017,0,0,0,32,6ZM51,45H48V33h3Zm0-14V27h2v4Zm3,14H53V33h1a6,6,0,0,1,0,12Z"/><path d="M39,16H25a5,5,0,0,0-5,5V40a5,5,0,0,0,5,5h2v6a1,1,0,0,0,.59.91.99.99,0,0,0,1.07-.16L36.38,45H39a5,5,0,0,0,5-5V21A5,5,0,0,0,39,16Zm3,24a3.009,3.009,0,0,1-3,3H36a1,1,0,0,0-.66.25L29,48.8V44a1,1,0,0,0-1-1H25a3.009,3.009,0,0,1-3-3V21a3.009,3.009,0,0,1,3-3H39a3.009,3.009,0,0,1,3,3Z"/><path d="M32,28a3,3,0,1,0-3-3A3,3,0,0,0,32,28Zm0-4a1,1,0,1,1-1,1A1,1,0,0,1,32,24Z"/><path d="M36,39H35V30a1,1,0,0,0-1-1H28a1,1,0,0,0,0,2h1v8H28a1,1,0,0,0,0,2h8a1,1,0,0,0,0-2Zm-3,0H31V31h2Z"/></g></svg>
