<?xml version="1.0"?>
<svg xmlns="http://www.w3.org/2000/svg" viewBox="0 0 64 64" width="512" height="512"><g id="mail-email-info-help-support"><path d="M32,16a3,3,0,1,0-3-3A3,3,0,0,0,32,16Zm0-4a1,1,0,1,1-1,1A1,1,0,0,1,32,12Z"/><path d="M28,27a1,1,0,0,0,0,2h8a1,1,0,0,0,0-2H35V18a1,1,0,0,0-1-1H28a1,1,0,0,0,0,2h1v8Zm3-8h2v8H31Z"/><path d="M24,33h1v4a1,1,0,0,0,1.581.814L33.32,33H40a5.006,5.006,0,0,0,5-5V11a5.006,5.006,0,0,0-5-5H24a5.006,5.006,0,0,0-5,5V28A5.006,5.006,0,0,0,24,33ZM21,11a3,3,0,0,1,3-3H40a3,3,0,0,1,3,3V28a3,3,0,0,1-3,3H33a1,1,0,0,0-.581.186L27,35.057V32a1,1,0,0,0-1-1H24a3,3,0,0,1-3-3Z"/><path d="M13,11a1,1,0,0,0,1-1V8h2a1,1,0,0,0,0-2H13a1,1,0,0,0-1,1v3A1,1,0,0,0,13,11Z"/><path d="M62,24.938h0v0h0l-.006-.059h0v0h0a.993.993,0,0,0-.342-.63h0l0,0,0,0L56,19.5V11a1,1,0,0,0-.293-.707l-8-8A1,1,0,0,0,47,2H9A1,1,0,0,0,8,3V19.5l-5.643,4.73A1,1,0,0,0,2,25V61a1,1,0,0,0,1,1H61a1,1,0,0,0,1-1V25.007C62,24.984,62,24.961,62,24.938Zm-6-2.825L59.437,25,56,27.84Zm-8-16.7L52.586,10H48ZM10,4H46v7a1,1,0,0,0,1,1h7V29.5L39.25,41.7l-5.327-4.409a2.99,2.99,0,0,0-3.841,0L24.75,41.7,10,29.5ZM8,22.113V27.84L4.563,25ZM4,27.126,23.182,43,4,58.874ZM5.777,60,31.362,38.827a.994.994,0,0,1,1.281,0L58.223,60ZM60,58.874,40.819,43,60,27.126Z"/></g></svg>
